<svg width="17" height="18" viewBox="0 0 17 18" fill="none" xmlns="http://www.w3.org/2000/svg">
<path d="M16.9227 10.2695L15.374 8.92943L16.8231 7.65315C16.8808 7.60307 16.9083 7.52264 16.8953 7.44524C16.8823 7.36784 16.8303 7.30259 16.7595 7.27527L14.8929 6.56201L15.9273 4.64076C15.9649 4.57246 15.9634 4.48748 15.9259 4.41919C15.8869 4.3509 15.8175 4.30992 15.7424 4.30992L13.6952 4.32813L14.0333 2.31582C14.0463 2.23843 14.0189 2.158 13.9611 2.10792C13.9033 2.05632 13.8238 2.04266 13.753 2.06846L11.9067 2.77413L11.5354 0.667735C11.5224 0.590338 11.4689 0.525082 11.3981 0.499283C11.3273 0.473485 11.2479 0.48866 11.1901 0.53874L9.63414 1.93643L8.6315 0.110783C8.59394 0.0424922 8.52459 0 8.44802 0C8.3729 0 8.30355 0.0424922 8.26454 0.110783L7.27202 1.9167L5.74062 0.590338C5.68283 0.540258 5.60337 0.5266 5.53258 0.553916C5.46179 0.581233 5.41123 0.646489 5.39822 0.725403L5.06738 2.80449L3.14446 2.06846C3.07367 2.04114 2.99421 2.05632 2.93642 2.1064C2.87864 2.158 2.85119 2.23691 2.86419 2.31431L3.21814 4.42526L1.25333 4.44347C1.1782 4.44347 1.10886 4.48748 1.07129 4.55577C1.03373 4.62558 1.03517 4.70905 1.07274 4.77734L2.06092 6.53773L0.138005 7.27527C0.0672136 7.30259 0.0152037 7.36633 0.00220126 7.44524C-0.0108012 7.52416 0.0166484 7.60307 0.0744372 7.65315L1.68385 9.07209L0.175567 10.4273C0.117779 10.4789 0.0917738 10.5578 0.104776 10.6367C0.117779 10.7141 0.171233 10.7794 0.242024 10.8052L2.02481 11.4683L1.02073 13.2925C0.983165 13.3608 0.983165 13.4457 1.02073 13.514C1.05829 13.5823 1.12764 13.6248 1.20276 13.6248H3.34383L3.00722 15.7373C2.99421 15.8147 3.02311 15.8951 3.0809 15.9452C3.13868 15.9953 3.21814 16.0089 3.28894 15.9816L5.03993 15.2926L5.378 17.3049C5.391 17.3823 5.44301 17.4476 5.5138 17.4749C5.58459 17.5022 5.66405 17.4871 5.72184 17.437L7.3616 15.9907L8.4278 17.8923C8.46536 17.9605 8.53615 18.003 8.61128 18.0015C8.6864 18.0015 8.75575 17.9575 8.79331 17.8892L9.72371 16.1607L11.1728 17.437C11.2306 17.4886 11.31 17.5022 11.3808 17.4749C11.4516 17.4476 11.5036 17.3823 11.5166 17.3049L11.8807 15.1318L13.8989 15.8815C13.9697 15.9073 14.0492 15.8936 14.107 15.8405C14.1648 15.7889 14.1908 15.71 14.1778 15.6311L13.8224 13.6233H15.6918C15.767 13.6233 15.8363 13.5808 15.8753 13.5125C15.9129 13.4442 15.9129 13.3592 15.8753 13.291L14.8554 11.4365L16.8606 10.6488C16.9314 10.6215 16.982 10.5563 16.995 10.4774C17.008 10.4 16.9805 10.3211 16.9227 10.2695ZM8.50292 13.3289C6.22894 13.3289 4.37825 11.3849 4.37825 8.99621C4.37825 6.60754 6.22894 4.66352 8.50292 4.66352C10.7769 4.66352 12.6276 6.60754 12.6276 8.99621C12.6276 11.3849 10.7769 13.3289 8.50292 13.3289Z" fill="#169C2C"/>
</svg>
